<svg xmlns="http://www.w3.org/2000/svg" viewBox="0 0 265.78 265.78"><defs><style>.cls-1{fill:#1a1a24;}.cls-2{font-size:49.88px;fill:#ffeddc;}.cls-11,.cls-12,.cls-13,.cls-2{font-family:BebasNeue-Regular, Bebas Neue;}.cls-3{letter-spacing:-0.03em;}.cls-4{letter-spacing:0em;}.cls-5{letter-spacing:0em;}.cls-6,.cls-7,.cls-8,.cls-9{fill:none;}.cls-6{stroke:#ffeede;stroke-width:3px;}.cls-15,.cls-16,.cls-17,.cls-6,.cls-7,.cls-8,.cls-9{stroke-miterlimit:10;}.cls-7,.cls-8{stroke:#c59b71;}.cls-7{stroke-width:5px;}.cls-8,.cls-9{stroke-width:4px;}.cls-9{stroke:#c39970;}.cls-10,.cls-11{fill:#ffefe1;}.cls-11{font-size:14px;}.cls-12{font-size:20px;fill:#fcefe3;}.cls-13{font-size:13.46px;fill:#492e15;letter-spacing:0em;}.cls-14{letter-spacing:0em;}.cls-15{fill:#020202;stroke-width:3.1px;}.cls-15,.cls-16,.cls-17{stroke:#fff;}.cls-16{fill:#070707;stroke-width:4.14px;}.cls-17{fill:#8b0042;stroke-width:2.76px;}</style></defs><g id="Layer_2" data-name="Layer 2"><g id="Layer_1-2" data-name="Layer 1"><rect class="cls-1" width="265.78" height="265.78"/></g><g id="Layer_3" data-name="Layer 3"><text class="cls-2" transform="translate(35.89 151.45) scale(1.26 1)">CHALU<tspan class="cls-3" x="97.27" y="0">P</tspan><tspan class="cls-4" x="114.77" y="0">A</tspan><tspan class="cls-5" x="134.63" y="0">S</tspan></text><g id="Layer_2-2" data-name="Layer 2"><path class="cls-6" d="M32.9,217.57A129.86,129.86,0,0,1,2.08,133.38C2.08,98.14,11,75.06,32.9,49.19"/><path class="cls-6" d="M211.17,237.39c-22.47,18.36-50.1,26.37-78.71,26.37-31.28,0-57.32-8.86-79.78-27.22"/><path class="cls-6" d="M232,49.17c16.57,19.57,30.84,55.26,30.84,84.21A129.88,129.88,0,0,1,232,217.62"/><path class="cls-6" d="M45.19,36.24C68.13,16.12,96.88,3,132.46,3c32.91,0,64.3,13.12,87.24,33.24"/><path class="cls-7" d="M232,192.61a116.06,116.06,0,0,0,0-119.26v-35H199.51a116,116,0,0,0-134.1,0H32.9v35.1a116.11,116.11,0,0,0,0,119.12v44.85H81.85A115.6,115.6,0,0,0,132.46,249c18.14,0,35.31-4.17,49.61-11.59H231Z"/><path class="cls-8" d="M227.11,104.54H203.22a56.43,56.43,0,0,0-5.16-10.34V71.41H176.94a75.49,75.49,0,0,0-87.22,0H68.58V94.25a75.34,75.34,0,0,0-5.13,10.29H39.56"/><path class="cls-9" d="M39.56,161.43H63.45a76.5,76.5,0,0,0,5.13,10.29v29.16h31.84a75,75,0,0,0,32.91,7.55c9.14,0,23-2.71,32.92-7.55h31.81V171.76a76.56,76.56,0,0,0,5.16-10.33h23.89"/><path class="cls-10" d="M194,106.17a67.21,67.21,0,0,0-123.25,0Z"/><path class="cls-10" d="M70.44,159.2a67.23,67.23,0,0,0,123.79,0Z"/><text class="cls-11" transform="matrix(0.82, 0.57, -0.57, 0.82, 55, 214.39)">t</text><text class="cls-11" transform="translate(59 217.2) rotate(30.75)">a</text><text class="cls-11" transform="translate(64.27 220.3) rotate(26.29)">k</text><text class="cls-11" transform="translate(69.75 222.95) rotate(23.34)">i</text><text class="cls-11" transform="translate(72.49 224.17) rotate(20.58)">n</text><text class="cls-11" transform="translate(78.42 226.38) rotate(17.32)">g</text><text class="cls-11" transform="translate(83.83 228.03) rotate(15.36)"> </text><text class="cls-11" transform="matrix(0.97, 0.24, -0.24, 0.97, 86.12, 228.66)">i</text><text class="cls-11" transform="translate(88.92 229.39) rotate(12.29)">d</text><text class="cls-11" transform="translate(94.65 230.61) rotate(10.57)">i</text><text class="cls-11" transform="matrix(0.99, 0.16, -0.16, 0.99, 97.45, 231.15)">o</text><text class="cls-11" transform="matrix(0.99, 0.12, -0.12, 0.99, 103.13, 232.04)">t</text><text class="cls-11" transform="translate(108.38 232.69) rotate(5.47)">s</text><text class="cls-11" transform="translate(113.66 233.18) rotate(4.37)"> </text><text class="cls-11" transform="matrix(1, 0.06, -0.06, 1, 116.01, 233.37)">t</text><text class="cls-11" transform="translate(121.18 233.68) rotate(1.94)">o</text><text class="cls-11" transform="translate(126.83 233.85) rotate(0.98)"> </text><text class="cls-11" transform="translate(129.08 233.89) rotate(0.36)">s</text><text class="cls-11" transform="matrix(1, -0.02, 0.02, 1, 134.31, 233.91)">c</text><text class="cls-11" transform="translate(139.63 233.83) rotate(-2.27)">h</text><text class="cls-11" transform="translate(145.67 233.58) rotate(-3.8)">o</text><text class="cls-11" transform="translate(151.42 233.2) rotate(-5.47)">o</text><text class="cls-11" transform="translate(157.19 232.64) rotate(-7.22)">l</text><text class="cls-11" transform="matrix(0.99, -0.15, 0.15, 0.99, 162.12, 232)"> </text><text class="cls-11" transform="translate(164.48 231.67) rotate(-10.03)">S</text><text class="cls-11" transform="translate(169.8 230.7) rotate(-11.78)">I</text><text class="cls-11" transform="translate(172.65 230.14) rotate(-13.91)">N</text><text class="cls-11" transform="translate(178.77 228.61) rotate(-17.07)">C</text><text class="cls-11" transform="matrix(0.94, -0.35, 0.35, 0.94, 184.23, 226.92)">E</text><text class="cls-11" transform="translate(189.25 225.01) rotate(-23.07)"> </text><text class="cls-11" transform="matrix(0.9, -0.44, 0.44, 0.9, 191.63, 224.04)">2</text><text class="cls-11" transform="translate(197.14 221.31) rotate(-31.24)">0</text><text class="cls-11" transform="translate(202.43 218.07) rotate(-36.97)">2</text><text class="cls-11" transform="translate(207.43 214.26) rotate(-43.37)">0</text><text class="cls-11" transform="translate(211.82 209.99) rotate(-48.14)"> </text><text class="cls-12" transform="translate(64.08 67.01) rotate(-38.42)">c</text><text class="cls-12" transform="matrix(0.84, -0.54, 0.54, 0.84, 69.81, 62.43)">H</text><text class="cls-12" transform="translate(76.61 58.05) rotate(-27.42)">A</text><text class="cls-12" transform="matrix(0.92, -0.39, 0.39, 0.92, 83.5, 54.49)">L</text><text class="cls-12" transform="translate(89.62 51.87) rotate(-18.79)">U</text><text class="cls-12" transform="matrix(0.97, -0.25, 0.25, 0.97, 96.98, 49.37)">P</text><text class="cls-12" transform="translate(103.56 47.61) rotate(-11.24)">A</text><text class="cls-12" transform="translate(111.18 46.1) rotate(-7.71)">S</text><text class="cls-12" transform="translate(118.4 45.16) rotate(-5.38)"> </text><text class="cls-12" transform="translate(121.45 44.82) rotate(-3.05)">P</text><text class="cls-12" transform="translate(128.96 44.39) rotate(0.63)">E</text><text class="cls-12" transform="matrix(1, 0.05, -0.05, 1, 136.06, 44.43)">L</text><text class="cls-12" transform="matrix(0.99, 0.11, -0.11, 0.99, 142.82, 44.77)">A</text><text class="cls-12" transform="translate(150.64 45.68) rotate(8.83)"> </text><text class="cls-12" transform="translate(153.67 46.1) rotate(11.33)">V</text><text class="cls-12" transform="matrix(0.97, 0.26, -0.26, 0.97, 160.97, 47.56)">E</text><text class="cls-12" transform="translate(167.76 49.34) rotate(18.77)">R</text><text class="cls-12" transform="matrix(0.92, 0.39, -0.39, 0.92, 175.17, 51.85)">D</text><text class="cls-12" transform="translate(182.36 54.9) rotate(27.79)">A</text><text class="cls-12" transform="matrix(0.84, 0.54, -0.54, 0.84, 189.18, 58.47)">D</text><text class="cls-12" transform="translate(195.77 62.73) rotate(38.01)">E</text><text/><text class="cls-13" transform="translate(108.74 184.23) scale(1.21 1)">E<tspan class="cls-14" x="4.91" y="0">st 2020</tspan></text><path class="cls-15" d="M151.5,102.32a24.15,24.15,0,0,1,7.45-.59c3.49.26,10,1.52,10.58,4.11.89,4.17-13.87,10.54-14.89,11-24.95,10.61-49.38,6.13-50,2.35-.35-2.22,4.81-4.65,12.83-8.41C127.73,105.94,130.93,107.14,151.5,102.32Z"/><path class="cls-16" d="M119,115.45a169.64,169.64,0,0,0-5-16.82q-1.85-5.2-3.82-9.85s-7.32-9.77-5.13-10.57c6.5-2.39,7.92-3.33,11.14-4.69,5.59-2.38,6.76-2.69,12-4.52A40.35,40.35,0,0,0,134,66.86c2.77-1.48,2.92-2,5.66-3.41a24.93,24.93,0,0,1,5.39-1.9c1.66-.38,2.51-.58,3.08-.24,1.91,1.11,1,5.81.64,8.28-1.2,7.43-4.17,25.89,3.14,35.08,1,1.21,2.36,2.16,1.56,2.54C150.62,108.59,135.25,114.09,119,115.45Z"/><path class="cls-17" d="M113.66,106.82c.15,1.61,2.42,3.68,2,7.25-.17,1.27-.53,1.6-.39,2,.56,1.53,8.75.82,39.78-7.84-2.41-2.14-5-5.25-5.68-9.4-.34-2.09.11-2.67-.39-3.53C145.37,89.16,113.07,100.4,113.66,106.82Z"/></g></g></g></svg>